<?xml version="1.0" encoding="UTF-8" standalone="no"?>
<!DOCTYPE svg PUBLIC "-//W3C//DTD SVG 1.1//EN"
 "http://www.w3.org/Graphics/SVG/1.1/DTD/svg11.dtd">
<!-- Generated by graphviz version 2.47.1 (20210417.1919)
 -->
<!-- Pages: 1 -->
<svg width="1685pt" height="466pt"
 viewBox="0.00 0.00 1685.27 465.81" xmlns="http://www.w3.org/2000/svg" xmlns:xlink="http://www.w3.org/1999/xlink">
<g id="graph0" class="graph" transform="scale(1 1) rotate(0) translate(4 461.81)">
<polygon fill="white" stroke="transparent" points="-4,4 -4,-461.81 1681.27,-461.81 1681.27,4 -4,4"/>
<g id="clust2" class="cluster">
<title>cluster2 x 2</title>
<path fill="none" stroke="black" d="M1573.27,-140.93C1573.27,-140.93 1657.27,-140.93 1657.27,-140.93 1663.27,-140.93 1669.27,-146.93 1669.27,-152.93 1669.27,-152.93 1669.27,-220.93 1669.27,-220.93 1669.27,-226.93 1663.27,-232.93 1657.27,-232.93 1657.27,-232.93 1573.27,-232.93 1573.27,-232.93 1567.27,-232.93 1561.27,-226.93 1561.27,-220.93 1561.27,-220.93 1561.27,-152.93 1561.27,-152.93 1561.27,-146.93 1567.27,-140.93 1573.27,-140.93"/>
<text text-anchor="middle" x="1647.27" y="-148.73" font-family="Times,serif" font-size="14.00">2 x 2</text>
</g>
<g id="clust3" class="cluster">
<title>cluster224 x 2</title>
<path fill="none" stroke="black" d="M733.27,-8C733.27,-8 987.27,-8 987.27,-8 993.27,-8 999.27,-14 999.27,-20 999.27,-20 999.27,-109.95 999.27,-109.95 999.27,-115.95 993.27,-121.95 987.27,-121.95 987.27,-121.95 733.27,-121.95 733.27,-121.95 727.27,-121.95 721.27,-115.95 721.27,-109.95 721.27,-109.95 721.27,-20 721.27,-20 721.27,-14 727.27,-8 733.27,-8"/>
<text text-anchor="middle" x="970.27" y="-15.8" font-family="Times,serif" font-size="14.00">224 x 2</text>
</g>
<g id="clust1" class="cluster">
<title>cluster3</title>
<path fill="none" stroke="black" d="M42.27,-129.95C42.27,-129.95 1509.27,-129.95 1509.27,-129.95 1515.27,-129.95 1521.27,-135.95 1521.27,-141.95 1521.27,-141.95 1521.27,-231.91 1521.27,-231.91 1521.27,-237.91 1515.27,-243.91 1509.27,-243.91 1509.27,-243.91 42.27,-243.91 42.27,-243.91 36.27,-243.91 30.27,-237.91 30.27,-231.91 30.27,-231.91 30.27,-141.95 30.27,-141.95 30.27,-135.95 36.27,-129.95 42.27,-129.95"/>
<text text-anchor="middle" x="1509.77" y="-137.75" font-family="Times,serif" font-size="14.00">3</text>
</g>
<!-- ν -->
<g id="node1" class="node">
<title>ν</title>
<ellipse fill="none" stroke="black" cx="588.27" cy="-420.34" rx="57.97" ry="37.45"/>
<text text-anchor="middle" x="588.27" y="-431.64" font-family="Times,serif" font-size="14.00">ν</text>
<text text-anchor="middle" x="588.27" y="-416.64" font-family="Times,serif" font-size="14.00">~</text>
<text text-anchor="middle" x="588.27" y="-401.64" font-family="Times,serif" font-size="14.00">Exponential</text>
</g>
<!-- mu_b -->
<g id="node5" class="node">
<title>mu_b</title>
<ellipse fill="none" stroke="black" cx="1004.27" cy="-309.38" rx="46.84" ry="37.45"/>
<text text-anchor="middle" x="1004.27" y="-320.68" font-family="Times,serif" font-size="14.00">mu_b</text>
<text text-anchor="middle" x="1004.27" y="-305.68" font-family="Times,serif" font-size="14.00">~</text>
<text text-anchor="middle" x="1004.27" y="-290.68" font-family="Times,serif" font-size="14.00">StudentT</text>
</g>
<!-- ν&#45;&gt;mu_b -->
<g id="edge3" class="edge">
<title>ν&#45;&gt;mu_b</title>
<path fill="none" stroke="black" d="M641.8,-405.32C721.46,-384.45 870.34,-345.46 950.27,-324.53"/>
<polygon fill="black" stroke="black" points="951.35,-327.86 960.13,-321.94 949.57,-321.09 951.35,-327.86"/>
</g>
<!-- δ15N -->
<g id="node8" class="node">
<title>δ15N</title>
<ellipse fill="none" stroke="black" cx="208.27" cy="-309.38" rx="46.84" ry="37.45"/>
<text text-anchor="middle" x="208.27" y="-320.68" font-family="Times,serif" font-size="14.00">δ15N</text>
<text text-anchor="middle" x="208.27" y="-305.68" font-family="Times,serif" font-size="14.00">~</text>
<text text-anchor="middle" x="208.27" y="-290.68" font-family="Times,serif" font-size="14.00">StudentT</text>
</g>
<!-- ν&#45;&gt;δ15N -->
<g id="edge2" class="edge">
<title>ν&#45;&gt;δ15N</title>
<path fill="none" stroke="black" d="M531.37,-412.86C465.16,-403.92 353.51,-384.45 264.27,-346.86 259.83,-344.99 255.35,-342.76 250.97,-340.35"/>
<polygon fill="black" stroke="black" points="252.54,-337.21 242.15,-335.18 249,-343.25 252.54,-337.21"/>
</g>
<!-- δ13C -->
<g id="node9" class="node">
<title>δ13C</title>
<ellipse fill="none" stroke="black" cx="588.27" cy="-309.38" rx="46.84" ry="37.45"/>
<text text-anchor="middle" x="588.27" y="-320.68" font-family="Times,serif" font-size="14.00">δ13C</text>
<text text-anchor="middle" x="588.27" y="-305.68" font-family="Times,serif" font-size="14.00">~</text>
<text text-anchor="middle" x="588.27" y="-290.68" font-family="Times,serif" font-size="14.00">StudentT</text>
</g>
<!-- ν&#45;&gt;δ13C -->
<g id="edge1" class="edge">
<title>ν&#45;&gt;δ13C</title>
<path fill="none" stroke="black" d="M588.27,-382.75C588.27,-374.58 588.27,-365.8 588.27,-357.27"/>
<polygon fill="black" stroke="black" points="591.77,-357.06 588.27,-347.06 584.77,-357.06 591.77,-357.06"/>
</g>
<!-- µ_sp -->
<g id="node22" class="node">
<title>µ_sp</title>
<ellipse fill="lightgrey" stroke="black" cx="790.27" cy="-76.48" rx="60.62" ry="37.45"/>
<text text-anchor="middle" x="790.27" y="-87.78" font-family="Times,serif" font-size="14.00">µ_sp</text>
<text text-anchor="middle" x="790.27" y="-72.78" font-family="Times,serif" font-size="14.00">~</text>
<text text-anchor="middle" x="790.27" y="-57.78" font-family="Times,serif" font-size="14.00">MvStudentT</text>
</g>
<!-- ν&#45;&gt;µ_sp -->
<g id="edge40" class="edge">
<title>ν&#45;&gt;µ_sp</title>
<path fill="none" stroke="black" d="M530.42,-416.25C392.21,-408.28 51.82,-384.94 18.27,-346.86 -6.18,-319.1 -7.57,-164.21 26.27,-129.95 74.33,-81.3 538.67,-76.96 719.09,-77.12"/>
<polygon fill="black" stroke="black" points="719.26,-80.63 729.27,-77.14 719.27,-73.63 719.26,-80.63"/>
</g>
<!-- mvT_sp -->
<g id="node23" class="node">
<title>mvT_sp</title>
<ellipse fill="lightgrey" stroke="black" cx="930.27" cy="-76.48" rx="60.62" ry="37.45"/>
<text text-anchor="middle" x="930.27" y="-87.78" font-family="Times,serif" font-size="14.00">mvT_sp</text>
<text text-anchor="middle" x="930.27" y="-72.78" font-family="Times,serif" font-size="14.00">~</text>
<text text-anchor="middle" x="930.27" y="-57.78" font-family="Times,serif" font-size="14.00">MvStudentT</text>
</g>
<!-- ν&#45;&gt;mvT_sp -->
<g id="edge29" class="edge">
<title>ν&#45;&gt;mvT_sp</title>
<path fill="none" stroke="black" d="M646.22,-418.28C834.13,-413.47 1420.47,-387.04 1525.27,-243.91 1555.19,-203.04 1559.47,-167.31 1525.27,-129.95 1490.49,-91.96 1151.3,-81.33 1001.16,-78.48"/>
<polygon fill="black" stroke="black" points="1001.18,-74.98 991.12,-78.29 1001.05,-81.98 1001.18,-74.98"/>
</g>
<!-- sδ13C -->
<g id="node2" class="node">
<title>sδ13C</title>
<ellipse fill="none" stroke="black" cx="331.27" cy="-309.38" rx="57.97" ry="37.45"/>
<text text-anchor="middle" x="331.27" y="-320.68" font-family="Times,serif" font-size="14.00">sδ13C</text>
<text text-anchor="middle" x="331.27" y="-305.68" font-family="Times,serif" font-size="14.00">~</text>
<text text-anchor="middle" x="331.27" y="-290.68" font-family="Times,serif" font-size="14.00">HalfCauchy</text>
</g>
<!-- µδ13C -->
<g id="node15" class="node">
<title>µδ13C</title>
<ellipse fill="none" stroke="black" cx="196.27" cy="-198.43" rx="46.84" ry="37.45"/>
<text text-anchor="middle" x="196.27" y="-209.73" font-family="Times,serif" font-size="14.00">µδ13C</text>
<text text-anchor="middle" x="196.27" y="-194.73" font-family="Times,serif" font-size="14.00">~</text>
<text text-anchor="middle" x="196.27" y="-179.73" font-family="Times,serif" font-size="14.00">StudentT</text>
</g>
<!-- sδ13C&#45;&gt;µδ13C -->
<g id="edge6" class="edge">
<title>sδ13C&#45;&gt;µδ13C</title>
<path fill="none" stroke="black" d="M295.45,-279.47C277.27,-264.8 255.12,-246.93 236.37,-231.79"/>
<polygon fill="black" stroke="black" points="238.55,-229.05 228.57,-225.49 234.15,-234.5 238.55,-229.05"/>
</g>
<!-- nu_a -->
<g id="node3" class="node">
<title>nu_a</title>
<ellipse fill="none" stroke="black" cx="465.27" cy="-309.38" rx="57.97" ry="37.45"/>
<text text-anchor="middle" x="465.27" y="-320.68" font-family="Times,serif" font-size="14.00">nu_a</text>
<text text-anchor="middle" x="465.27" y="-305.68" font-family="Times,serif" font-size="14.00">~</text>
<text text-anchor="middle" x="465.27" y="-290.68" font-family="Times,serif" font-size="14.00">Exponential</text>
</g>
<!-- nu_a&#45;&gt;µδ13C -->
<g id="edge4" class="edge">
<title>nu_a&#45;&gt;µδ13C</title>
<path fill="none" stroke="black" d="M423.66,-283.17C415.45,-278.94 406.75,-274.94 398.27,-271.91 336.07,-249.62 312.32,-271.47 252.27,-243.91 246.13,-241.09 240.07,-237.46 234.33,-233.49"/>
<polygon fill="black" stroke="black" points="236.31,-230.6 226.19,-227.48 232.16,-236.24 236.31,-230.6"/>
</g>
<!-- ⍺δ15N -->
<g id="node16" class="node">
<title>⍺δ15N</title>
<ellipse fill="none" stroke="black" cx="496.27" cy="-198.43" rx="46.84" ry="37.45"/>
<text text-anchor="middle" x="496.27" y="-209.73" font-family="Times,serif" font-size="14.00">⍺δ15N</text>
<text text-anchor="middle" x="496.27" y="-194.73" font-family="Times,serif" font-size="14.00">~</text>
<text text-anchor="middle" x="496.27" y="-179.73" font-family="Times,serif" font-size="14.00">StudentT</text>
</g>
<!-- nu_a&#45;&gt;⍺δ15N -->
<g id="edge13" class="edge">
<title>nu_a&#45;&gt;⍺δ15N</title>
<path fill="none" stroke="black" d="M475.51,-272.41C477.99,-263.67 480.69,-254.21 483.28,-245.08"/>
<polygon fill="black" stroke="black" points="486.68,-245.95 486.05,-235.37 479.94,-244.03 486.68,-245.95"/>
</g>
<!-- ⍺δ13C -->
<g id="node17" class="node">
<title>⍺δ13C</title>
<ellipse fill="none" stroke="black" cx="607.27" cy="-198.43" rx="46.84" ry="37.45"/>
<text text-anchor="middle" x="607.27" y="-209.73" font-family="Times,serif" font-size="14.00">⍺δ13C</text>
<text text-anchor="middle" x="607.27" y="-194.73" font-family="Times,serif" font-size="14.00">~</text>
<text text-anchor="middle" x="607.27" y="-179.73" font-family="Times,serif" font-size="14.00">StudentT</text>
</g>
<!-- nu_a&#45;&gt;⍺δ13C -->
<g id="edge10" class="edge">
<title>nu_a&#45;&gt;⍺δ13C</title>
<path fill="none" stroke="black" d="M503.22,-280.8C518.56,-269.51 536.37,-256.22 552.27,-243.91 557.18,-240.11 562.29,-236.08 567.34,-232.05"/>
<polygon fill="black" stroke="black" points="569.56,-234.75 575.17,-225.76 565.18,-229.29 569.56,-234.75"/>
</g>
<!-- µδ15N -->
<g id="node20" class="node">
<title>µδ15N</title>
<ellipse fill="none" stroke="black" cx="85.27" cy="-198.43" rx="46.84" ry="37.45"/>
<text text-anchor="middle" x="85.27" y="-209.73" font-family="Times,serif" font-size="14.00">µδ15N</text>
<text text-anchor="middle" x="85.27" y="-194.73" font-family="Times,serif" font-size="14.00">~</text>
<text text-anchor="middle" x="85.27" y="-179.73" font-family="Times,serif" font-size="14.00">StudentT</text>
</g>
<!-- nu_a&#45;&gt;µδ15N -->
<g id="edge7" class="edge">
<title>nu_a&#45;&gt;µδ15N</title>
<path fill="none" stroke="black" d="M424.21,-282.8C415.88,-278.54 406.99,-274.64 398.27,-271.91 288.2,-237.45 246.77,-288.19 140.27,-243.91 134.24,-241.4 128.35,-238.02 122.79,-234.23"/>
<polygon fill="black" stroke="black" points="124.49,-231.13 114.36,-228.01 120.33,-236.77 124.49,-231.13"/>
</g>
<!-- sd_a -->
<g id="node4" class="node">
<title>sd_a</title>
<ellipse fill="none" stroke="black" cx="711.27" cy="-309.38" rx="57.97" ry="37.45"/>
<text text-anchor="middle" x="711.27" y="-320.68" font-family="Times,serif" font-size="14.00">sd_a</text>
<text text-anchor="middle" x="711.27" y="-305.68" font-family="Times,serif" font-size="14.00">~</text>
<text text-anchor="middle" x="711.27" y="-290.68" font-family="Times,serif" font-size="14.00">HalfCauchy</text>
</g>
<!-- sd_a&#45;&gt;⍺δ15N -->
<g id="edge14" class="edge">
<title>sd_a&#45;&gt;⍺δ15N</title>
<path fill="none" stroke="black" d="M669.03,-283.68C660.95,-279.45 652.46,-275.33 644.27,-271.91 604.44,-255.28 589.43,-264.08 551.27,-243.91 545.64,-240.93 540.04,-237.34 534.68,-233.5"/>
<polygon fill="black" stroke="black" points="536.58,-230.55 526.49,-227.31 532.36,-236.13 536.58,-230.55"/>
</g>
<!-- sd_a&#45;&gt;⍺δ13C -->
<g id="edge11" class="edge">
<title>sd_a&#45;&gt;⍺δ13C</title>
<path fill="none" stroke="black" d="M681.47,-277.16C669.33,-264.44 655.2,-249.64 642.54,-236.38"/>
<polygon fill="black" stroke="black" points="644.73,-233.6 635.29,-228.79 639.67,-238.44 644.73,-233.6"/>
</g>
<!-- Season_δ15N -->
<g id="node10" class="node">
<title>Season_δ15N</title>
<ellipse fill="none" stroke="black" cx="1004.27" cy="-198.43" rx="65.11" ry="37.45"/>
<text text-anchor="middle" x="1004.27" y="-209.73" font-family="Times,serif" font-size="14.00">Season_δ15N</text>
<text text-anchor="middle" x="1004.27" y="-194.73" font-family="Times,serif" font-size="14.00">~</text>
<text text-anchor="middle" x="1004.27" y="-179.73" font-family="Times,serif" font-size="14.00">Laplace</text>
</g>
<!-- mu_b&#45;&gt;Season_δ15N -->
<g id="edge22" class="edge">
<title>mu_b&#45;&gt;Season_δ15N</title>
<path fill="none" stroke="black" d="M1004.27,-271.8C1004.27,-263.63 1004.27,-254.85 1004.27,-246.32"/>
<polygon fill="black" stroke="black" points="1007.77,-246.1 1004.27,-236.1 1000.77,-246.1 1007.77,-246.1"/>
</g>
<!-- Season_δ13C -->
<g id="node11" class="node">
<title>Season_δ13C</title>
<ellipse fill="none" stroke="black" cx="857.27" cy="-198.43" rx="64.19" ry="37.45"/>
<text text-anchor="middle" x="857.27" y="-209.73" font-family="Times,serif" font-size="14.00">Season_δ13C</text>
<text text-anchor="middle" x="857.27" y="-194.73" font-family="Times,serif" font-size="14.00">~</text>
<text text-anchor="middle" x="857.27" y="-179.73" font-family="Times,serif" font-size="14.00">Laplace</text>
</g>
<!-- mu_b&#45;&gt;Season_δ13C -->
<g id="edge20" class="edge">
<title>mu_b&#45;&gt;Season_δ13C</title>
<path fill="none" stroke="black" d="M970.55,-283.39C950.93,-268.85 925.9,-250.3 904.36,-234.33"/>
<polygon fill="black" stroke="black" points="906.42,-231.5 896.3,-228.36 902.25,-237.12 906.42,-231.5"/>
</g>
<!-- Sex_δ13C -->
<g id="node12" class="node">
<title>Sex_δ13C</title>
<ellipse fill="none" stroke="black" cx="723.27" cy="-198.43" rx="51.74" ry="37.45"/>
<text text-anchor="middle" x="723.27" y="-209.73" font-family="Times,serif" font-size="14.00">Sex_δ13C</text>
<text text-anchor="middle" x="723.27" y="-194.73" font-family="Times,serif" font-size="14.00">~</text>
<text text-anchor="middle" x="723.27" y="-179.73" font-family="Times,serif" font-size="14.00">Laplace</text>
</g>
<!-- mu_b&#45;&gt;Sex_δ13C -->
<g id="edge16" class="edge">
<title>mu_b&#45;&gt;Sex_δ13C</title>
<path fill="none" stroke="black" d="M958.76,-299.85C913.06,-290.19 841.4,-272.04 784.27,-243.91 777.8,-240.72 771.3,-236.85 765.07,-232.74"/>
<polygon fill="black" stroke="black" points="767,-229.82 756.79,-227.02 763.03,-235.58 767,-229.82"/>
</g>
<!-- Maturity_δ13C -->
<g id="node13" class="node">
<title>Maturity_δ13C</title>
<ellipse fill="none" stroke="black" cx="1442.27" cy="-198.43" rx="71.34" ry="37.45"/>
<text text-anchor="middle" x="1442.27" y="-209.73" font-family="Times,serif" font-size="14.00">Maturity_δ13C</text>
<text text-anchor="middle" x="1442.27" y="-194.73" font-family="Times,serif" font-size="14.00">~</text>
<text text-anchor="middle" x="1442.27" y="-179.73" font-family="Times,serif" font-size="14.00">Laplace</text>
</g>
<!-- mu_b&#45;&gt;Maturity_δ13C -->
<g id="edge24" class="edge">
<title>mu_b&#45;&gt;Maturity_δ13C</title>
<path fill="none" stroke="black" d="M1039.07,-284.36C1047.63,-279.47 1057,-274.91 1066.27,-271.91 1191.56,-231.33 1235.39,-282.62 1361.27,-243.91 1370.49,-241.07 1379.85,-237.11 1388.77,-232.72"/>
<polygon fill="black" stroke="black" points="1390.6,-235.71 1397.88,-228.01 1387.39,-229.49 1390.6,-235.71"/>
</g>
<!-- Maturity_δ15N -->
<g id="node14" class="node">
<title>Maturity_δ15N</title>
<ellipse fill="none" stroke="black" cx="1281.27" cy="-198.43" rx="71.34" ry="37.45"/>
<text text-anchor="middle" x="1281.27" y="-209.73" font-family="Times,serif" font-size="14.00">Maturity_δ15N</text>
<text text-anchor="middle" x="1281.27" y="-194.73" font-family="Times,serif" font-size="14.00">~</text>
<text text-anchor="middle" x="1281.27" y="-179.73" font-family="Times,serif" font-size="14.00">Laplace</text>
</g>
<!-- mu_b&#45;&gt;Maturity_δ15N -->
<g id="edge26" class="edge">
<title>mu_b&#45;&gt;Maturity_δ15N</title>
<path fill="none" stroke="black" d="M1039.66,-284.91C1048.12,-280.06 1057.3,-275.37 1066.27,-271.91 1123.02,-249.97 1143.2,-265 1200.27,-243.91 1209.09,-240.65 1218.12,-236.54 1226.8,-232.16"/>
<polygon fill="black" stroke="black" points="1228.46,-235.25 1235.7,-227.51 1225.22,-229.04 1228.46,-235.25"/>
</g>
<!-- Sex_δ15N -->
<g id="node18" class="node">
<title>Sex_δ15N</title>
<ellipse fill="none" stroke="black" cx="1139.27" cy="-198.43" rx="52.15" ry="37.45"/>
<text text-anchor="middle" x="1139.27" y="-209.73" font-family="Times,serif" font-size="14.00">Sex_δ15N</text>
<text text-anchor="middle" x="1139.27" y="-194.73" font-family="Times,serif" font-size="14.00">~</text>
<text text-anchor="middle" x="1139.27" y="-179.73" font-family="Times,serif" font-size="14.00">Laplace</text>
</g>
<!-- mu_b&#45;&gt;Sex_δ15N -->
<g id="edge18" class="edge">
<title>mu_b&#45;&gt;Sex_δ15N</title>
<path fill="none" stroke="black" d="M1036.61,-282.29C1054.71,-267.68 1077.49,-249.29 1096.99,-233.56"/>
<polygon fill="black" stroke="black" points="1099.26,-236.22 1104.84,-227.22 1094.86,-230.78 1099.26,-236.22"/>
</g>
<!-- sd_b -->
<g id="node6" class="node">
<title>sd_b</title>
<ellipse fill="none" stroke="black" cx="1133.27" cy="-309.38" rx="57.97" ry="37.45"/>
<text text-anchor="middle" x="1133.27" y="-320.68" font-family="Times,serif" font-size="14.00">sd_b</text>
<text text-anchor="middle" x="1133.27" y="-305.68" font-family="Times,serif" font-size="14.00">~</text>
<text text-anchor="middle" x="1133.27" y="-290.68" font-family="Times,serif" font-size="14.00">HalfCauchy</text>
</g>
<!-- sd_b&#45;&gt;Season_δ15N -->
<g id="edge23" class="edge">
<title>sd_b&#45;&gt;Season_δ15N</title>
<path fill="none" stroke="black" d="M1098.7,-279.19C1083.18,-266.08 1064.69,-250.46 1048.2,-236.53"/>
<polygon fill="black" stroke="black" points="1050.19,-233.63 1040.29,-229.85 1045.67,-238.98 1050.19,-233.63"/>
</g>
<!-- sd_b&#45;&gt;Season_δ13C -->
<g id="edge21" class="edge">
<title>sd_b&#45;&gt;Season_δ13C</title>
<path fill="none" stroke="black" d="M1089.65,-284.37C1080.16,-279.77 1070.03,-275.33 1060.27,-271.91 1004.51,-252.32 985.17,-265.81 930.27,-243.91 922.44,-240.78 914.5,-236.86 906.87,-232.64"/>
<polygon fill="black" stroke="black" points="908.5,-229.54 898.09,-227.58 905.01,-235.61 908.5,-229.54"/>
</g>
<!-- sd_b&#45;&gt;Sex_δ13C -->
<g id="edge17" class="edge">
<title>sd_b&#45;&gt;Sex_δ13C</title>
<path fill="none" stroke="black" d="M1090.7,-283.9C1080.97,-279.22 1070.48,-274.87 1060.27,-271.91 941.85,-237.57 899.42,-287.98 784.27,-243.91 777.37,-241.27 770.55,-237.63 764.11,-233.57"/>
<polygon fill="black" stroke="black" points="765.84,-230.51 755.59,-227.82 761.92,-236.31 765.84,-230.51"/>
</g>
<!-- sd_b&#45;&gt;Maturity_δ13C -->
<g id="edge25" class="edge">
<title>sd_b&#45;&gt;Maturity_δ13C</title>
<path fill="none" stroke="black" d="M1187.87,-296.63C1234.8,-285.66 1303.79,-267.46 1361.27,-243.91 1369.77,-240.42 1378.53,-236.27 1386.99,-231.92"/>
<polygon fill="black" stroke="black" points="1388.83,-234.91 1396.04,-227.15 1385.56,-228.72 1388.83,-234.91"/>
</g>
<!-- sd_b&#45;&gt;Maturity_δ15N -->
<g id="edge27" class="edge">
<title>sd_b&#45;&gt;Maturity_δ15N</title>
<path fill="none" stroke="black" d="M1171,-280.61C1189.67,-266.87 1212.43,-250.11 1232.41,-235.4"/>
<polygon fill="black" stroke="black" points="1234.51,-238.2 1240.49,-229.45 1230.36,-232.56 1234.51,-238.2"/>
</g>
<!-- sd_b&#45;&gt;Sex_δ15N -->
<g id="edge19" class="edge">
<title>sd_b&#45;&gt;Sex_δ15N</title>
<path fill="none" stroke="black" d="M1135.29,-271.8C1135.74,-263.63 1136.22,-254.85 1136.69,-246.32"/>
<polygon fill="black" stroke="black" points="1140.2,-246.28 1137.25,-236.1 1133.21,-245.89 1140.2,-246.28"/>
</g>
<!-- sδ15N -->
<g id="node7" class="node">
<title>sδ15N</title>
<ellipse fill="none" stroke="black" cx="85.27" cy="-309.38" rx="57.97" ry="37.45"/>
<text text-anchor="middle" x="85.27" y="-320.68" font-family="Times,serif" font-size="14.00">sδ15N</text>
<text text-anchor="middle" x="85.27" y="-305.68" font-family="Times,serif" font-size="14.00">~</text>
<text text-anchor="middle" x="85.27" y="-290.68" font-family="Times,serif" font-size="14.00">HalfCauchy</text>
</g>
<!-- sδ15N&#45;&gt;µδ15N -->
<g id="edge8" class="edge">
<title>sδ15N&#45;&gt;µδ15N</title>
<path fill="none" stroke="black" d="M85.27,-271.8C85.27,-263.63 85.27,-254.85 85.27,-246.32"/>
<polygon fill="black" stroke="black" points="88.77,-246.1 85.27,-236.1 81.77,-246.1 88.77,-246.1"/>
</g>
<!-- δ15N&#45;&gt;⍺δ15N -->
<g id="edge15" class="edge">
<title>δ15N&#45;&gt;⍺δ15N</title>
<path fill="none" stroke="black" d="M242,-283.22C249.07,-278.87 256.69,-274.83 264.27,-271.91 338.19,-243.45 367.77,-275.8 440.27,-243.91 446.53,-241.15 452.69,-237.52 458.5,-233.52"/>
<polygon fill="black" stroke="black" points="460.76,-236.21 466.74,-227.46 456.61,-230.57 460.76,-236.21"/>
</g>
<!-- δ15N&#45;&gt;µδ15N -->
<g id="edge9" class="edge">
<title>δ15N&#45;&gt;µδ15N</title>
<path fill="none" stroke="black" d="M177.55,-281.17C161.26,-266.74 141.09,-248.87 123.76,-233.53"/>
<polygon fill="black" stroke="black" points="125.83,-230.68 116.03,-226.67 121.19,-235.92 125.83,-230.68"/>
</g>
<!-- δ13C&#45;&gt;µδ13C -->
<g id="edge5" class="edge">
<title>δ13C&#45;&gt;µδ13C</title>
<path fill="none" stroke="black" d="M554.98,-283.05C547.81,-278.67 540.04,-274.64 532.27,-271.91 414.3,-230.38 368.16,-290.93 252.27,-243.91 245.93,-241.33 239.73,-237.81 233.9,-233.86"/>
<polygon fill="black" stroke="black" points="235.78,-230.9 225.64,-227.84 231.65,-236.56 235.78,-230.9"/>
</g>
<!-- δ13C&#45;&gt;⍺δ13C -->
<g id="edge12" class="edge">
<title>δ13C&#45;&gt;⍺δ13C</title>
<path fill="none" stroke="black" d="M594.6,-272.1C596.06,-263.74 597.63,-254.73 599.15,-245.99"/>
<polygon fill="black" stroke="black" points="602.64,-246.38 600.91,-235.92 595.74,-245.17 602.64,-246.38"/>
</g>
<!-- Season_δ15N&#45;&gt;mvT_sp -->
<g id="edge33" class="edge">
<title>Season_δ15N&#45;&gt;mvT_sp</title>
<path fill="none" stroke="black" d="M982.87,-162.73C974.74,-149.57 965.39,-134.41 956.85,-120.56"/>
<polygon fill="black" stroke="black" points="959.6,-118.35 951.37,-111.68 953.64,-122.03 959.6,-118.35"/>
</g>
<!-- Season_δ13C&#45;&gt;mvT_sp -->
<g id="edge31" class="edge">
<title>Season_δ13C&#45;&gt;mvT_sp</title>
<path fill="none" stroke="black" d="M878.39,-162.73C886.33,-149.68 895.47,-134.67 903.84,-120.92"/>
<polygon fill="black" stroke="black" points="907,-122.46 909.2,-112.09 901.02,-118.82 907,-122.46"/>
</g>
<!-- Sex_δ13C&#45;&gt;mvT_sp -->
<g id="edge32" class="edge">
<title>Sex_δ13C&#45;&gt;mvT_sp</title>
<path fill="none" stroke="black" d="M745.05,-164.3C755.35,-151.39 768.79,-137.83 784.27,-129.95 814.55,-114.56 828.2,-133.13 860.27,-121.95 868.19,-119.19 876.12,-115.39 883.66,-111.16"/>
<polygon fill="black" stroke="black" points="885.49,-114.14 892.3,-106.03 881.91,-108.12 885.49,-114.14"/>
</g>
<!-- Maturity_δ13C&#45;&gt;mvT_sp -->
<g id="edge34" class="edge">
<title>Maturity_δ13C&#45;&gt;mvT_sp</title>
<path fill="none" stroke="black" d="M1411.32,-164.41C1397.31,-151.52 1379.75,-137.94 1361.27,-129.95 1298.16,-102.68 1106.13,-87.63 1000.97,-81.23"/>
<polygon fill="black" stroke="black" points="1000.95,-77.72 990.76,-80.62 1000.53,-84.71 1000.95,-77.72"/>
</g>
<!-- Maturity_δ15N&#45;&gt;mvT_sp -->
<g id="edge35" class="edge">
<title>Maturity_δ15N&#45;&gt;mvT_sp</title>
<path fill="none" stroke="black" d="M1249.65,-164.7C1235.65,-152.01 1218.29,-138.51 1200.27,-129.95 1136.92,-99.88 1057.4,-87.04 1001.11,-81.56"/>
<polygon fill="black" stroke="black" points="1001.15,-78.05 990.88,-80.62 1000.51,-85.02 1001.15,-78.05"/>
</g>
<!-- µδ13C&#45;&gt;µ_sp -->
<g id="edge42" class="edge">
<title>µδ13C&#45;&gt;µ_sp</title>
<path fill="none" stroke="black" d="M215.7,-164.28C225.06,-151.36 237.48,-137.8 252.27,-129.95 331.48,-87.94 592.16,-79.41 719.3,-77.78"/>
<polygon fill="black" stroke="black" points="719.37,-81.28 729.32,-77.67 719.28,-74.28 719.37,-81.28"/>
</g>
<!-- ⍺δ15N&#45;&gt;mvT_sp -->
<g id="edge36" class="edge">
<title>⍺δ15N&#45;&gt;mvT_sp</title>
<path fill="none" stroke="black" d="M514.97,-163.77C524.1,-150.77 536.35,-137.28 551.27,-129.95 582.1,-114.82 827.42,-131.97 860.27,-121.95 868.39,-119.48 876.48,-115.79 884.12,-111.57"/>
<polygon fill="black" stroke="black" points="886.03,-114.51 892.87,-106.41 882.48,-108.48 886.03,-114.51"/>
</g>
<!-- ⍺δ13C&#45;&gt;mvT_sp -->
<g id="edge38" class="edge">
<title>⍺δ13C&#45;&gt;mvT_sp</title>
<path fill="none" stroke="black" d="M626.02,-163.88C635.16,-150.89 647.4,-137.39 662.27,-129.95 701.66,-110.26 818.24,-135.1 860.27,-121.95 868.37,-119.42 876.45,-115.7 884.09,-111.46"/>
<polygon fill="black" stroke="black" points="886,-114.4 892.83,-106.3 882.44,-108.37 886,-114.4"/>
</g>
<!-- Sex_δ15N&#45;&gt;mvT_sp -->
<g id="edge37" class="edge">
<title>Sex_δ15N&#45;&gt;mvT_sp</title>
<path fill="none" stroke="black" d="M1115.62,-164.99C1105.29,-152.66 1092.33,-139.33 1078.27,-129.95 1053.73,-113.58 1023.49,-101.68 996.76,-93.38"/>
<polygon fill="black" stroke="black" points="997.67,-90 987.08,-90.49 995.66,-96.71 997.67,-90"/>
</g>
<!-- pL -->
<g id="node19" class="node">
<title>pL</title>
<ellipse fill="none" stroke="black" cx="346.27" cy="-198.43" rx="84.71" ry="37.45"/>
<text text-anchor="middle" x="346.27" y="-209.73" font-family="Times,serif" font-size="14.00">pL</text>
<text text-anchor="middle" x="346.27" y="-194.73" font-family="Times,serif" font-size="14.00">~</text>
<text text-anchor="middle" x="346.27" y="-179.73" font-family="Times,serif" font-size="14.00">_LKJCholeskyCov</text>
</g>
<!-- Σ -->
<g id="node21" class="node">
<title>Σ</title>
<polygon fill="none" stroke="black" points="1660.77,-224.93 1569.77,-224.93 1569.77,-171.93 1660.77,-171.93 1660.77,-224.93"/>
<text text-anchor="middle" x="1615.27" y="-209.73" font-family="Times,serif" font-size="14.00">Σ</text>
<text text-anchor="middle" x="1615.27" y="-194.73" font-family="Times,serif" font-size="14.00">~</text>
<text text-anchor="middle" x="1615.27" y="-179.73" font-family="Times,serif" font-size="14.00">Deterministic</text>
</g>
<!-- pL&#45;&gt;Σ -->
<g id="edge28" class="edge">
<title>pL&#45;&gt;Σ</title>
<path fill="none" stroke="black" d="M390.15,-230.56C407.64,-241.49 428.53,-252.35 449.27,-257.91 508.14,-273.68 1489.14,-279.13 1546.27,-257.91 1560.85,-252.49 1574.4,-242.46 1585.57,-232.17"/>
<polygon fill="black" stroke="black" points="1588.17,-234.52 1592.91,-225.05 1583.3,-229.5 1588.17,-234.52"/>
</g>
<!-- µδ15N&#45;&gt;µ_sp -->
<g id="edge39" class="edge">
<title>µδ15N&#45;&gt;µ_sp</title>
<path fill="none" stroke="black" d="M104.42,-163.81C113.55,-150.99 125.69,-137.61 140.27,-129.95 190.56,-103.53 561.57,-86.28 719.47,-80.06"/>
<polygon fill="black" stroke="black" points="719.7,-83.56 729.55,-79.67 719.42,-76.56 719.7,-83.56"/>
</g>
<!-- Σ&#45;&gt;µ_sp -->
<g id="edge41" class="edge">
<title>Σ&#45;&gt;µ_sp</title>
<path fill="none" stroke="black" d="M1590.31,-171.8C1573.54,-156.47 1550.05,-138.38 1525.27,-129.95 1490.29,-118.06 895.69,-132.48 860.27,-121.95 852.04,-119.51 843.84,-115.78 836.11,-111.51"/>
<polygon fill="black" stroke="black" points="837.66,-108.37 827.27,-106.29 834.1,-114.39 837.66,-108.37"/>
</g>
<!-- Σ&#45;&gt;mvT_sp -->
<g id="edge30" class="edge">
<title>Σ&#45;&gt;mvT_sp</title>
<path fill="none" stroke="black" d="M1599.7,-171.79C1589.15,-156.86 1573.78,-139.21 1555.27,-129.95 1459.85,-82.22 1144.27,-76.81 1001.51,-76.91"/>
<polygon fill="black" stroke="black" points="1001.12,-73.41 991.13,-76.92 1001.13,-80.41 1001.12,-73.41"/>
</g>
</g>
</svg>
