<?xml version="1.0" encoding="UTF-8" standalone="no"?>
<!DOCTYPE svg PUBLIC "-//W3C//DTD SVG 1.1//EN"
 "http://www.w3.org/Graphics/SVG/1.1/DTD/svg11.dtd">
<!-- Generated by graphviz version 2.47.1 (20210417.1919)
 -->
<!-- Pages: 1 -->
<svg width="1592pt" height="466pt"
 viewBox="0.00 0.00 1591.73 465.81" xmlns="http://www.w3.org/2000/svg" xmlns:xlink="http://www.w3.org/1999/xlink">
<g id="graph0" class="graph" transform="scale(1 1) rotate(0) translate(4 461.81)">
<polygon fill="white" stroke="transparent" points="-4,4 -4,-461.81 1587.73,-461.81 1587.73,4 -4,4"/>
<g id="clust2" class="cluster">
<title>cluster2 x 2</title>
<path fill="none" stroke="black" d="M1479.73,-140.93C1479.73,-140.93 1563.73,-140.93 1563.73,-140.93 1569.73,-140.93 1575.73,-146.93 1575.73,-152.93 1575.73,-152.93 1575.73,-220.93 1575.73,-220.93 1575.73,-226.93 1569.73,-232.93 1563.73,-232.93 1563.73,-232.93 1479.73,-232.93 1479.73,-232.93 1473.73,-232.93 1467.73,-226.93 1467.73,-220.93 1467.73,-220.93 1467.73,-152.93 1467.73,-152.93 1467.73,-146.93 1473.73,-140.93 1479.73,-140.93"/>
<text text-anchor="middle" x="1553.73" y="-148.73" font-family="Times,serif" font-size="14.00">2 x 2</text>
</g>
<g id="clust3" class="cluster">
<title>cluster224 x 2</title>
<path fill="none" stroke="black" d="M735.73,-8C735.73,-8 989.73,-8 989.73,-8 995.73,-8 1001.73,-14 1001.73,-20 1001.73,-20 1001.73,-109.95 1001.73,-109.95 1001.73,-115.95 995.73,-121.95 989.73,-121.95 989.73,-121.95 735.73,-121.95 735.73,-121.95 729.73,-121.95 723.73,-115.95 723.73,-109.95 723.73,-109.95 723.73,-20 723.73,-20 723.73,-14 729.73,-8 735.73,-8"/>
<text text-anchor="middle" x="972.73" y="-15.8" font-family="Times,serif" font-size="14.00">224 x 2</text>
</g>
<g id="clust1" class="cluster">
<title>cluster3</title>
<path fill="none" stroke="black" d="M39.73,-129.95C39.73,-129.95 1415.73,-129.95 1415.73,-129.95 1421.73,-129.95 1427.73,-135.95 1427.73,-141.95 1427.73,-141.95 1427.73,-231.91 1427.73,-231.91 1427.73,-237.91 1421.73,-243.91 1415.73,-243.91 1415.73,-243.91 39.73,-243.91 39.73,-243.91 33.73,-243.91 27.73,-237.91 27.73,-231.91 27.73,-231.91 27.73,-141.95 27.73,-141.95 27.73,-135.95 33.73,-129.95 39.73,-129.95"/>
<text text-anchor="middle" x="1416.23" y="-137.75" font-family="Times,serif" font-size="14.00">3</text>
</g>
<!-- sδ13C -->
<g id="node1" class="node">
<title>sδ13C</title>
<ellipse fill="none" stroke="black" cx="1115.73" cy="-309.38" rx="57.97" ry="37.45"/>
<text text-anchor="middle" x="1115.73" y="-320.68" font-family="Times,serif" font-size="14.00">sδ13C</text>
<text text-anchor="middle" x="1115.73" y="-305.68" font-family="Times,serif" font-size="14.00">~</text>
<text text-anchor="middle" x="1115.73" y="-290.68" font-family="Times,serif" font-size="14.00">HalfCauchy</text>
</g>
<!-- µδ13C -->
<g id="node20" class="node">
<title>µδ13C</title>
<ellipse fill="none" stroke="black" cx="1261.73" cy="-198.43" rx="46.84" ry="37.45"/>
<text text-anchor="middle" x="1261.73" y="-209.73" font-family="Times,serif" font-size="14.00">µδ13C</text>
<text text-anchor="middle" x="1261.73" y="-194.73" font-family="Times,serif" font-size="14.00">~</text>
<text text-anchor="middle" x="1261.73" y="-179.73" font-family="Times,serif" font-size="14.00">StudentT</text>
</g>
<!-- sδ13C&#45;&gt;µδ13C -->
<g id="edge5" class="edge">
<title>sδ13C&#45;&gt;µδ13C</title>
<path fill="none" stroke="black" d="M1154.58,-281.19C1170.55,-269.84 1189.16,-256.41 1205.73,-243.91 1210.8,-240.08 1216.09,-236 1221.29,-231.93"/>
<polygon fill="black" stroke="black" points="1223.68,-234.51 1229.37,-225.58 1219.35,-229.01 1223.68,-234.51"/>
</g>
<!-- δ13C -->
<g id="node2" class="node">
<title>δ13C</title>
<ellipse fill="none" stroke="black" cx="858.73" cy="-309.38" rx="46.84" ry="37.45"/>
<text text-anchor="middle" x="858.73" y="-320.68" font-family="Times,serif" font-size="14.00">δ13C</text>
<text text-anchor="middle" x="858.73" y="-305.68" font-family="Times,serif" font-size="14.00">~</text>
<text text-anchor="middle" x="858.73" y="-290.68" font-family="Times,serif" font-size="14.00">StudentT</text>
</g>
<!-- ⍺δ13C -->
<g id="node13" class="node">
<title>⍺δ13C</title>
<ellipse fill="none" stroke="black" cx="850.73" cy="-198.43" rx="46.84" ry="37.45"/>
<text text-anchor="middle" x="850.73" y="-209.73" font-family="Times,serif" font-size="14.00">⍺δ13C</text>
<text text-anchor="middle" x="850.73" y="-194.73" font-family="Times,serif" font-size="14.00">~</text>
<text text-anchor="middle" x="850.73" y="-179.73" font-family="Times,serif" font-size="14.00">StudentT</text>
</g>
<!-- δ13C&#45;&gt;⍺δ13C -->
<g id="edge12" class="edge">
<title>δ13C&#45;&gt;⍺δ13C</title>
<path fill="none" stroke="black" d="M856.05,-271.8C855.45,-263.63 854.8,-254.85 854.17,-246.32"/>
<polygon fill="black" stroke="black" points="857.65,-245.82 853.42,-236.1 850.67,-246.33 857.65,-245.82"/>
</g>
<!-- δ13C&#45;&gt;µδ13C -->
<g id="edge6" class="edge">
<title>δ13C&#45;&gt;µδ13C</title>
<path fill="none" stroke="black" d="M892.02,-283.03C899.19,-278.65 906.96,-274.63 914.73,-271.91 1037.37,-228.99 1085.24,-292.53 1205.73,-243.91 1212.07,-241.35 1218.28,-237.83 1224.12,-233.88"/>
<polygon fill="black" stroke="black" points="1226.36,-236.58 1232.37,-227.86 1222.23,-230.93 1226.36,-236.58"/>
</g>
<!-- sd_b -->
<g id="node3" class="node">
<title>sd_b</title>
<ellipse fill="none" stroke="black" cx="340.73" cy="-309.38" rx="57.97" ry="37.45"/>
<text text-anchor="middle" x="340.73" y="-320.68" font-family="Times,serif" font-size="14.00">sd_b</text>
<text text-anchor="middle" x="340.73" y="-305.68" font-family="Times,serif" font-size="14.00">~</text>
<text text-anchor="middle" x="340.73" y="-290.68" font-family="Times,serif" font-size="14.00">HalfCauchy</text>
</g>
<!-- Temp_δ13C -->
<g id="node10" class="node">
<title>Temp_δ13C</title>
<ellipse fill="none" stroke="black" cx="605.73" cy="-198.43" rx="59.29" ry="37.45"/>
<text text-anchor="middle" x="605.73" y="-209.73" font-family="Times,serif" font-size="14.00">Temp_δ13C</text>
<text text-anchor="middle" x="605.73" y="-194.73" font-family="Times,serif" font-size="14.00">~</text>
<text text-anchor="middle" x="605.73" y="-179.73" font-family="Times,serif" font-size="14.00">Laplace</text>
</g>
<!-- sd_b&#45;&gt;Temp_δ13C -->
<g id="edge20" class="edge">
<title>sd_b&#45;&gt;Temp_δ13C</title>
<path fill="none" stroke="black" d="M383.88,-284.02C392.9,-279.55 402.48,-275.26 411.73,-271.91 465.26,-252.52 484.22,-265.89 536.73,-243.91 544.13,-240.81 551.6,-236.93 558.77,-232.75"/>
<polygon fill="black" stroke="black" points="560.93,-235.54 567.65,-227.35 557.29,-229.56 560.93,-235.54"/>
</g>
<!-- Temp_δ15N -->
<g id="node12" class="node">
<title>Temp_δ15N</title>
<ellipse fill="none" stroke="black" cx="467.73" cy="-198.43" rx="60.21" ry="37.45"/>
<text text-anchor="middle" x="467.73" y="-209.73" font-family="Times,serif" font-size="14.00">Temp_δ15N</text>
<text text-anchor="middle" x="467.73" y="-194.73" font-family="Times,serif" font-size="14.00">~</text>
<text text-anchor="middle" x="467.73" y="-179.73" font-family="Times,serif" font-size="14.00">Laplace</text>
</g>
<!-- sd_b&#45;&gt;Temp_δ15N -->
<g id="edge22" class="edge">
<title>sd_b&#45;&gt;Temp_δ15N</title>
<path fill="none" stroke="black" d="M375.1,-278.9C390.5,-265.68 408.83,-249.96 425.1,-236.01"/>
<polygon fill="black" stroke="black" points="427.58,-238.48 432.89,-229.32 423.03,-233.17 427.58,-238.48"/>
</g>
<!-- Age_δ15N -->
<g id="node15" class="node">
<title>Age_δ15N</title>
<ellipse fill="none" stroke="black" cx="89.73" cy="-198.43" rx="53.98" ry="37.45"/>
<text text-anchor="middle" x="89.73" y="-209.73" font-family="Times,serif" font-size="14.00">Age_δ15N</text>
<text text-anchor="middle" x="89.73" y="-194.73" font-family="Times,serif" font-size="14.00">~</text>
<text text-anchor="middle" x="89.73" y="-179.73" font-family="Times,serif" font-size="14.00">Laplace</text>
</g>
<!-- sd_b&#45;&gt;Age_δ15N -->
<g id="edge26" class="edge">
<title>sd_b&#45;&gt;Age_δ15N</title>
<path fill="none" stroke="black" d="M287.23,-294.45C248.68,-283.36 196.05,-266.05 152.73,-243.91 146.26,-240.6 139.69,-236.69 133.37,-232.59"/>
<polygon fill="black" stroke="black" points="135.18,-229.59 124.93,-226.91 131.27,-235.39 135.18,-229.59"/>
</g>
<!-- Sex_δ15N -->
<g id="node17" class="node">
<title>Sex_δ15N</title>
<ellipse fill="none" stroke="black" cx="213.73" cy="-198.43" rx="52.15" ry="37.45"/>
<text text-anchor="middle" x="213.73" y="-209.73" font-family="Times,serif" font-size="14.00">Sex_δ15N</text>
<text text-anchor="middle" x="213.73" y="-194.73" font-family="Times,serif" font-size="14.00">~</text>
<text text-anchor="middle" x="213.73" y="-179.73" font-family="Times,serif" font-size="14.00">Laplace</text>
</g>
<!-- sd_b&#45;&gt;Sex_δ15N -->
<g id="edge18" class="edge">
<title>sd_b&#45;&gt;Sex_δ15N</title>
<path fill="none" stroke="black" d="M306.36,-278.9C290.45,-265.25 271.43,-248.93 254.77,-234.64"/>
<polygon fill="black" stroke="black" points="256.68,-231.66 246.81,-227.81 252.12,-236.98 256.68,-231.66"/>
</g>
<!-- Age_δ13C -->
<g id="node18" class="node">
<title>Age_δ13C</title>
<ellipse fill="none" stroke="black" cx="336.73" cy="-198.43" rx="53.07" ry="37.45"/>
<text text-anchor="middle" x="336.73" y="-209.73" font-family="Times,serif" font-size="14.00">Age_δ13C</text>
<text text-anchor="middle" x="336.73" y="-194.73" font-family="Times,serif" font-size="14.00">~</text>
<text text-anchor="middle" x="336.73" y="-179.73" font-family="Times,serif" font-size="14.00">Laplace</text>
</g>
<!-- sd_b&#45;&gt;Age_δ13C -->
<g id="edge24" class="edge">
<title>sd_b&#45;&gt;Age_δ13C</title>
<path fill="none" stroke="black" d="M339.39,-271.8C339.09,-263.63 338.77,-254.85 338.45,-246.32"/>
<polygon fill="black" stroke="black" points="341.94,-245.97 338.08,-236.1 334.95,-246.22 341.94,-245.97"/>
</g>
<!-- Sex_δ13C -->
<g id="node19" class="node">
<title>Sex_δ13C</title>
<ellipse fill="none" stroke="black" cx="734.73" cy="-198.43" rx="51.74" ry="37.45"/>
<text text-anchor="middle" x="734.73" y="-209.73" font-family="Times,serif" font-size="14.00">Sex_δ13C</text>
<text text-anchor="middle" x="734.73" y="-194.73" font-family="Times,serif" font-size="14.00">~</text>
<text text-anchor="middle" x="734.73" y="-179.73" font-family="Times,serif" font-size="14.00">Laplace</text>
</g>
<!-- sd_b&#45;&gt;Sex_δ13C -->
<g id="edge16" class="edge">
<title>sd_b&#45;&gt;Sex_δ13C</title>
<path fill="none" stroke="black" d="M382.85,-283.56C392.1,-279.02 402.04,-274.8 411.73,-271.91 523.93,-238.36 564.47,-286.06 673.73,-243.91 680.63,-241.25 687.44,-237.6 693.88,-233.53"/>
<polygon fill="black" stroke="black" points="696.07,-236.28 702.39,-227.78 692.15,-230.48 696.07,-236.28"/>
</g>
<!-- nu_a -->
<g id="node4" class="node">
<title>nu_a</title>
<ellipse fill="none" stroke="black" cx="981.73" cy="-309.38" rx="57.97" ry="37.45"/>
<text text-anchor="middle" x="981.73" y="-320.68" font-family="Times,serif" font-size="14.00">nu_a</text>
<text text-anchor="middle" x="981.73" y="-305.68" font-family="Times,serif" font-size="14.00">~</text>
<text text-anchor="middle" x="981.73" y="-290.68" font-family="Times,serif" font-size="14.00">Exponential</text>
</g>
<!-- ⍺δ15N -->
<g id="node11" class="node">
<title>⍺δ15N</title>
<ellipse fill="none" stroke="black" cx="961.73" cy="-198.43" rx="46.84" ry="37.45"/>
<text text-anchor="middle" x="961.73" y="-209.73" font-family="Times,serif" font-size="14.00">⍺δ15N</text>
<text text-anchor="middle" x="961.73" y="-194.73" font-family="Times,serif" font-size="14.00">~</text>
<text text-anchor="middle" x="961.73" y="-179.73" font-family="Times,serif" font-size="14.00">StudentT</text>
</g>
<!-- nu_a&#45;&gt;⍺δ15N -->
<g id="edge13" class="edge">
<title>nu_a&#45;&gt;⍺δ15N</title>
<path fill="none" stroke="black" d="M975.07,-272.1C973.5,-263.56 971.81,-254.34 970.18,-245.43"/>
<polygon fill="black" stroke="black" points="973.61,-244.76 968.36,-235.55 966.73,-246.02 973.61,-244.76"/>
</g>
<!-- nu_a&#45;&gt;⍺δ13C -->
<g id="edge10" class="edge">
<title>nu_a&#45;&gt;⍺δ13C</title>
<path fill="none" stroke="black" d="M946.63,-279.19C929.41,-264.86 908.59,-247.55 890.75,-232.71"/>
<polygon fill="black" stroke="black" points="892.72,-229.8 882.79,-226.09 888.24,-235.18 892.72,-229.8"/>
</g>
<!-- µδ15N -->
<g id="node16" class="node">
<title>µδ15N</title>
<ellipse fill="none" stroke="black" cx="1372.73" cy="-198.43" rx="46.84" ry="37.45"/>
<text text-anchor="middle" x="1372.73" y="-209.73" font-family="Times,serif" font-size="14.00">µδ15N</text>
<text text-anchor="middle" x="1372.73" y="-194.73" font-family="Times,serif" font-size="14.00">~</text>
<text text-anchor="middle" x="1372.73" y="-179.73" font-family="Times,serif" font-size="14.00">StudentT</text>
</g>
<!-- nu_a&#45;&gt;µδ15N -->
<g id="edge7" class="edge">
<title>nu_a&#45;&gt;µδ15N</title>
<path fill="none" stroke="black" d="M1022.78,-282.77C1031.11,-278.52 1040,-274.62 1048.73,-271.91 1163.52,-236.25 1206.64,-289.81 1317.73,-243.91 1323.76,-241.41 1329.66,-238.04 1335.22,-234.25"/>
<polygon fill="black" stroke="black" points="1337.68,-236.79 1343.65,-228.04 1333.53,-231.16 1337.68,-236.79"/>
</g>
<!-- nu_a&#45;&gt;µδ13C -->
<g id="edge4" class="edge">
<title>nu_a&#45;&gt;µδ13C</title>
<path fill="none" stroke="black" d="M1023.31,-283.09C1031.52,-278.86 1040.23,-274.89 1048.73,-271.91 1115.61,-248.44 1141.12,-273.06 1205.73,-243.91 1211.89,-241.13 1217.96,-237.52 1223.7,-233.56"/>
<polygon fill="black" stroke="black" points="1225.87,-236.31 1231.85,-227.57 1221.72,-230.67 1225.87,-236.31"/>
</g>
<!-- sd_a -->
<g id="node5" class="node">
<title>sd_a</title>
<ellipse fill="none" stroke="black" cx="735.73" cy="-309.38" rx="57.97" ry="37.45"/>
<text text-anchor="middle" x="735.73" y="-320.68" font-family="Times,serif" font-size="14.00">sd_a</text>
<text text-anchor="middle" x="735.73" y="-305.68" font-family="Times,serif" font-size="14.00">~</text>
<text text-anchor="middle" x="735.73" y="-290.68" font-family="Times,serif" font-size="14.00">HalfCauchy</text>
</g>
<!-- sd_a&#45;&gt;⍺δ15N -->
<g id="edge14" class="edge">
<title>sd_a&#45;&gt;⍺δ15N</title>
<path fill="none" stroke="black" d="M777.9,-283.49C785.98,-279.27 794.49,-275.2 802.73,-271.91 847.17,-254.12 864.09,-265.65 906.73,-243.91 912.48,-240.98 918.18,-237.38 923.61,-233.51"/>
<polygon fill="black" stroke="black" points="926.02,-236.08 931.9,-227.26 921.81,-230.49 926.02,-236.08"/>
</g>
<!-- sd_a&#45;&gt;⍺δ13C -->
<g id="edge11" class="edge">
<title>sd_a&#45;&gt;⍺δ13C</title>
<path fill="none" stroke="black" d="M767.77,-278.03C781.91,-264.63 798.64,-248.78 813.36,-234.84"/>
<polygon fill="black" stroke="black" points="815.99,-237.17 820.84,-227.75 811.18,-232.08 815.99,-237.17"/>
</g>
<!-- sδ15N -->
<g id="node6" class="node">
<title>sδ15N</title>
<ellipse fill="none" stroke="black" cx="1361.73" cy="-309.38" rx="57.97" ry="37.45"/>
<text text-anchor="middle" x="1361.73" y="-320.68" font-family="Times,serif" font-size="14.00">sδ15N</text>
<text text-anchor="middle" x="1361.73" y="-305.68" font-family="Times,serif" font-size="14.00">~</text>
<text text-anchor="middle" x="1361.73" y="-290.68" font-family="Times,serif" font-size="14.00">HalfCauchy</text>
</g>
<!-- sδ15N&#45;&gt;µδ15N -->
<g id="edge8" class="edge">
<title>sδ15N&#45;&gt;µδ15N</title>
<path fill="none" stroke="black" d="M1365.43,-271.8C1366.25,-263.63 1367.14,-254.85 1368,-246.32"/>
<polygon fill="black" stroke="black" points="1371.51,-246.4 1369.03,-236.1 1364.54,-245.7 1371.51,-246.4"/>
</g>
<!-- mu_b -->
<g id="node7" class="node">
<title>mu_b</title>
<ellipse fill="none" stroke="black" cx="467.73" cy="-309.38" rx="46.84" ry="37.45"/>
<text text-anchor="middle" x="467.73" y="-320.68" font-family="Times,serif" font-size="14.00">mu_b</text>
<text text-anchor="middle" x="467.73" y="-305.68" font-family="Times,serif" font-size="14.00">~</text>
<text text-anchor="middle" x="467.73" y="-290.68" font-family="Times,serif" font-size="14.00">StudentT</text>
</g>
<!-- mu_b&#45;&gt;Temp_δ13C -->
<g id="edge21" class="edge">
<title>mu_b&#45;&gt;Temp_δ13C</title>
<path fill="none" stroke="black" d="M500.44,-282.56C518.65,-268.18 541.58,-250.08 561.39,-234.44"/>
<polygon fill="black" stroke="black" points="563.7,-237.08 569.38,-228.13 559.36,-231.58 563.7,-237.08"/>
</g>
<!-- mu_b&#45;&gt;Temp_δ15N -->
<g id="edge23" class="edge">
<title>mu_b&#45;&gt;Temp_δ15N</title>
<path fill="none" stroke="black" d="M467.73,-271.8C467.73,-263.63 467.73,-254.85 467.73,-246.32"/>
<polygon fill="black" stroke="black" points="471.23,-246.1 467.73,-236.1 464.23,-246.1 471.23,-246.1"/>
</g>
<!-- mu_b&#45;&gt;Age_δ15N -->
<g id="edge27" class="edge">
<title>mu_b&#45;&gt;Age_δ15N</title>
<path fill="none" stroke="black" d="M433.15,-283.88C425.12,-279.2 416.39,-274.85 407.73,-271.91 299.79,-235.2 259.36,-284.29 152.73,-243.91 145.67,-241.23 138.67,-237.58 132.04,-233.51"/>
<polygon fill="black" stroke="black" points="133.53,-230.31 123.25,-227.75 129.7,-236.16 133.53,-230.31"/>
</g>
<!-- mu_b&#45;&gt;Sex_δ15N -->
<g id="edge19" class="edge">
<title>mu_b&#45;&gt;Sex_δ15N</title>
<path fill="none" stroke="black" d="M432.59,-284.32C424.67,-279.67 416.12,-275.23 407.73,-271.91 351.56,-249.68 329.92,-268.47 274.73,-243.91 268.15,-240.98 261.57,-237.25 255.32,-233.21"/>
<polygon fill="black" stroke="black" points="257.24,-230.28 247,-227.55 253.3,-236.07 257.24,-230.28"/>
</g>
<!-- mu_b&#45;&gt;Age_δ13C -->
<g id="edge25" class="edge">
<title>mu_b&#45;&gt;Age_δ13C</title>
<path fill="none" stroke="black" d="M435.69,-281.73C418.45,-267.4 397,-249.55 378.47,-234.15"/>
<polygon fill="black" stroke="black" points="380.66,-231.42 370.74,-227.71 376.19,-236.8 380.66,-231.42"/>
</g>
<!-- mu_b&#45;&gt;Sex_δ13C -->
<g id="edge17" class="edge">
<title>mu_b&#45;&gt;Sex_δ13C</title>
<path fill="none" stroke="black" d="M512.75,-298.79C555.61,-288.63 621.19,-270.38 673.73,-243.91 680.17,-240.66 686.66,-236.76 692.87,-232.63"/>
<polygon fill="black" stroke="black" points="694.92,-235.47 701.16,-226.9 690.94,-229.71 694.92,-235.47"/>
</g>
<!-- ν -->
<g id="node8" class="node">
<title>ν</title>
<ellipse fill="none" stroke="black" cx="858.73" cy="-420.34" rx="57.97" ry="37.45"/>
<text text-anchor="middle" x="858.73" y="-431.64" font-family="Times,serif" font-size="14.00">ν</text>
<text text-anchor="middle" x="858.73" y="-416.64" font-family="Times,serif" font-size="14.00">~</text>
<text text-anchor="middle" x="858.73" y="-401.64" font-family="Times,serif" font-size="14.00">Exponential</text>
</g>
<!-- ν&#45;&gt;δ13C -->
<g id="edge1" class="edge">
<title>ν&#45;&gt;δ13C</title>
<path fill="none" stroke="black" d="M858.73,-382.75C858.73,-374.58 858.73,-365.8 858.73,-357.27"/>
<polygon fill="black" stroke="black" points="862.23,-357.06 858.73,-347.06 855.23,-357.06 862.23,-357.06"/>
</g>
<!-- ν&#45;&gt;mu_b -->
<g id="edge3" class="edge">
<title>ν&#45;&gt;mu_b</title>
<path fill="none" stroke="black" d="M806,-404.64C731.49,-383.88 596.14,-346.17 521.22,-325.29"/>
<polygon fill="black" stroke="black" points="522.08,-321.89 511.51,-322.58 520.2,-328.64 522.08,-321.89"/>
</g>
<!-- δ15N -->
<g id="node9" class="node">
<title>δ15N</title>
<ellipse fill="none" stroke="black" cx="1238.73" cy="-309.38" rx="46.84" ry="37.45"/>
<text text-anchor="middle" x="1238.73" y="-320.68" font-family="Times,serif" font-size="14.00">δ15N</text>
<text text-anchor="middle" x="1238.73" y="-305.68" font-family="Times,serif" font-size="14.00">~</text>
<text text-anchor="middle" x="1238.73" y="-290.68" font-family="Times,serif" font-size="14.00">StudentT</text>
</g>
<!-- ν&#45;&gt;δ15N -->
<g id="edge2" class="edge">
<title>ν&#45;&gt;δ15N</title>
<path fill="none" stroke="black" d="M915.63,-412.86C981.84,-403.92 1093.49,-384.45 1182.73,-346.86 1187.18,-344.99 1191.65,-342.76 1196.04,-340.35"/>
<polygon fill="black" stroke="black" points="1198,-343.25 1204.86,-335.18 1194.46,-337.21 1198,-343.25"/>
</g>
<!-- mvT_sp -->
<g id="node22" class="node">
<title>mvT_sp</title>
<ellipse fill="lightgrey" stroke="black" cx="792.73" cy="-76.48" rx="60.62" ry="37.45"/>
<text text-anchor="middle" x="792.73" y="-87.78" font-family="Times,serif" font-size="14.00">mvT_sp</text>
<text text-anchor="middle" x="792.73" y="-72.78" font-family="Times,serif" font-size="14.00">~</text>
<text text-anchor="middle" x="792.73" y="-57.78" font-family="Times,serif" font-size="14.00">MvStudentT</text>
</g>
<!-- ν&#45;&gt;mvT_sp -->
<g id="edge36" class="edge">
<title>ν&#45;&gt;mvT_sp</title>
<path fill="none" stroke="black" d="M800.95,-417.13C626.4,-409.06 111.1,-374.37 23.73,-243.91 -4.45,-201.82 -10.84,-166.96 23.73,-129.95 70.77,-79.59 540.06,-76.3 721.57,-76.94"/>
<polygon fill="black" stroke="black" points="721.8,-80.44 731.81,-76.98 721.83,-73.44 721.8,-80.44"/>
</g>
<!-- µ_sp -->
<g id="node23" class="node">
<title>µ_sp</title>
<ellipse fill="lightgrey" stroke="black" cx="932.73" cy="-76.48" rx="60.62" ry="37.45"/>
<text text-anchor="middle" x="932.73" y="-87.78" font-family="Times,serif" font-size="14.00">µ_sp</text>
<text text-anchor="middle" x="932.73" y="-72.78" font-family="Times,serif" font-size="14.00">~</text>
<text text-anchor="middle" x="932.73" y="-57.78" font-family="Times,serif" font-size="14.00">MvStudentT</text>
</g>
<!-- ν&#45;&gt;µ_sp -->
<g id="edge39" class="edge">
<title>ν&#45;&gt;µ_sp</title>
<path fill="none" stroke="black" d="M916.51,-416.19C1054.56,-408.08 1394.63,-384.45 1428.73,-346.86 1435.63,-339.25 1433.31,-131.71 1431.73,-129.95 1403.64,-98.75 1134.89,-84.79 1003.86,-79.79"/>
<polygon fill="black" stroke="black" points="1003.65,-76.28 993.52,-79.4 1003.39,-83.27 1003.65,-76.28"/>
</g>
<!-- δ15N&#45;&gt;⍺δ15N -->
<g id="edge15" class="edge">
<title>δ15N&#45;&gt;⍺δ15N</title>
<path fill="none" stroke="black" d="M1204.98,-283.28C1197.91,-278.93 1190.3,-274.86 1182.73,-271.91 1113.46,-244.82 1085.66,-274.21 1017.73,-243.91 1011.56,-241.15 1005.48,-237.56 999.74,-233.61"/>
<polygon fill="black" stroke="black" points="1001.72,-230.72 991.59,-227.62 997.57,-236.36 1001.72,-230.72"/>
</g>
<!-- δ15N&#45;&gt;µδ15N -->
<g id="edge9" class="edge">
<title>δ15N&#45;&gt;µδ15N</title>
<path fill="none" stroke="black" d="M1271.17,-282.01C1289.55,-267.06 1312.71,-248.23 1332.27,-232.33"/>
<polygon fill="black" stroke="black" points="1334.58,-234.96 1340.13,-225.94 1330.16,-229.53 1334.58,-234.96"/>
</g>
<!-- Temp_δ13C&#45;&gt;mvT_sp -->
<g id="edge29" class="edge">
<title>Temp_δ13C&#45;&gt;mvT_sp</title>
<path fill="none" stroke="black" d="M633.74,-164.96C645.27,-152.91 659.3,-139.79 673.73,-129.95 691.29,-117.98 712.02,-107.72 731.21,-99.53"/>
<polygon fill="black" stroke="black" points="732.6,-102.75 740.49,-95.68 729.91,-96.28 732.6,-102.75"/>
</g>
<!-- ⍺δ15N&#45;&gt;mvT_sp -->
<g id="edge30" class="edge">
<title>⍺δ15N&#45;&gt;mvT_sp</title>
<path fill="none" stroke="black" d="M941.93,-164.17C932.77,-151.56 920.79,-138.25 906.73,-129.95 889.62,-119.85 881.24,-129.2 862.73,-121.95 855.19,-119 847.58,-115.2 840.3,-111.07"/>
<polygon fill="black" stroke="black" points="841.67,-107.8 831.29,-105.69 838.08,-113.82 841.67,-107.8"/>
</g>
<!-- Temp_δ15N&#45;&gt;mvT_sp -->
<g id="edge31" class="edge">
<title>Temp_δ15N&#45;&gt;mvT_sp</title>
<path fill="none" stroke="black" d="M494.37,-164.72C506.35,-152.04 521.45,-138.53 537.73,-129.95 595.3,-99.62 668.77,-86.8 722.04,-81.4"/>
<polygon fill="black" stroke="black" points="722.46,-84.88 732.08,-80.45 721.8,-77.91 722.46,-84.88"/>
</g>
<!-- ⍺δ13C&#45;&gt;mvT_sp -->
<g id="edge33" class="edge">
<title>⍺δ13C&#45;&gt;mvT_sp</title>
<path fill="none" stroke="black" d="M834.11,-163.06C827.91,-150.23 820.78,-135.48 814.2,-121.88"/>
<polygon fill="black" stroke="black" points="817.26,-120.17 809.76,-112.69 810.96,-123.22 817.26,-120.17"/>
</g>
<!-- pL -->
<g id="node14" class="node">
<title>pL</title>
<ellipse fill="none" stroke="black" cx="1111.73" cy="-198.43" rx="84.71" ry="37.45"/>
<text text-anchor="middle" x="1111.73" y="-209.73" font-family="Times,serif" font-size="14.00">pL</text>
<text text-anchor="middle" x="1111.73" y="-194.73" font-family="Times,serif" font-size="14.00">~</text>
<text text-anchor="middle" x="1111.73" y="-179.73" font-family="Times,serif" font-size="14.00">_LKJCholeskyCov</text>
</g>
<!-- Σ -->
<g id="node21" class="node">
<title>Σ</title>
<polygon fill="none" stroke="black" points="1567.23,-224.93 1476.23,-224.93 1476.23,-171.93 1567.23,-171.93 1567.23,-224.93"/>
<text text-anchor="middle" x="1521.73" y="-209.73" font-family="Times,serif" font-size="14.00">Σ</text>
<text text-anchor="middle" x="1521.73" y="-194.73" font-family="Times,serif" font-size="14.00">~</text>
<text text-anchor="middle" x="1521.73" y="-179.73" font-family="Times,serif" font-size="14.00">Deterministic</text>
</g>
<!-- pL&#45;&gt;Σ -->
<g id="edge28" class="edge">
<title>pL&#45;&gt;Σ</title>
<path fill="none" stroke="black" d="M1155.61,-230.56C1173.1,-241.49 1193.99,-252.35 1214.73,-257.91 1265.82,-271.6 1403.15,-276.33 1452.73,-257.91 1467.31,-252.49 1480.86,-242.46 1492.03,-232.17"/>
<polygon fill="black" stroke="black" points="1494.63,-234.52 1499.37,-225.05 1489.76,-229.5 1494.63,-234.52"/>
</g>
<!-- Age_δ15N&#45;&gt;mvT_sp -->
<g id="edge34" class="edge">
<title>Age_δ15N&#45;&gt;mvT_sp</title>
<path fill="none" stroke="black" d="M112.35,-164.12C123,-151.17 136.86,-137.63 152.73,-129.95 251.46,-82.17 576.55,-76.84 721.68,-76.93"/>
<polygon fill="black" stroke="black" points="721.8,-80.43 731.81,-76.95 721.81,-73.43 721.8,-80.43"/>
</g>
<!-- µδ15N&#45;&gt;µ_sp -->
<g id="edge42" class="edge">
<title>µδ15N&#45;&gt;µ_sp</title>
<path fill="none" stroke="black" d="M1353.37,-164.21C1344.2,-151.44 1332.1,-138.01 1317.73,-129.95 1265.36,-100.58 1099.67,-86.68 1003.57,-80.94"/>
<polygon fill="black" stroke="black" points="1003.54,-77.43 993.35,-80.35 1003.13,-84.42 1003.54,-77.43"/>
</g>
<!-- Sex_δ15N&#45;&gt;mvT_sp -->
<g id="edge35" class="edge">
<title>Sex_δ15N&#45;&gt;mvT_sp</title>
<path fill="none" stroke="black" d="M235.5,-164.27C245.79,-151.36 259.23,-137.8 274.73,-129.95 351.22,-91.26 598.71,-81.09 721.83,-78.43"/>
<polygon fill="black" stroke="black" points="721.98,-81.92 731.91,-78.22 721.84,-74.93 721.98,-81.92"/>
</g>
<!-- Age_δ13C&#45;&gt;mvT_sp -->
<g id="edge37" class="edge">
<title>Age_δ13C&#45;&gt;mvT_sp</title>
<path fill="none" stroke="black" d="M359.37,-164.16C369.83,-151.38 383.35,-137.96 398.73,-129.95 453.49,-101.44 624.16,-87.15 721.97,-81.13"/>
<polygon fill="black" stroke="black" points="722.3,-84.62 732.08,-80.52 721.88,-77.63 722.3,-84.62"/>
</g>
<!-- Sex_δ13C&#45;&gt;mvT_sp -->
<g id="edge38" class="edge">
<title>Sex_δ13C&#45;&gt;mvT_sp</title>
<path fill="none" stroke="black" d="M751.51,-162.73C757.71,-149.92 764.82,-135.21 771.37,-121.67"/>
<polygon fill="black" stroke="black" points="774.59,-123.04 775.79,-112.51 768.29,-119.99 774.59,-123.04"/>
</g>
<!-- µδ13C&#45;&gt;µ_sp -->
<g id="edge40" class="edge">
<title>µδ13C&#45;&gt;µ_sp</title>
<path fill="none" stroke="black" d="M1241.67,-164.59C1232.29,-151.89 1220.02,-138.4 1205.73,-129.95 1143.91,-93.4 1061.71,-81.61 1003.72,-78.15"/>
<polygon fill="black" stroke="black" points="1003.71,-74.64 993.54,-77.61 1003.34,-81.63 1003.71,-74.64"/>
</g>
<!-- Σ&#45;&gt;mvT_sp -->
<g id="edge32" class="edge">
<title>Σ&#45;&gt;mvT_sp</title>
<path fill="none" stroke="black" d="M1496.77,-171.82C1480,-156.49 1456.5,-138.4 1431.73,-129.95 1371.89,-109.54 923.32,-140.04 862.73,-121.95 854.5,-119.5 846.3,-115.77 838.57,-111.5"/>
<polygon fill="black" stroke="black" points="840.13,-108.35 829.74,-106.28 836.57,-114.38 840.13,-108.35"/>
</g>
<!-- Σ&#45;&gt;µ_sp -->
<g id="edge41" class="edge">
<title>Σ&#45;&gt;µ_sp</title>
<path fill="none" stroke="black" d="M1506.11,-171.89C1495.54,-157 1480.17,-139.35 1461.73,-129.95 1383.56,-90.1 1129.65,-80.5 1004.2,-78.2"/>
<polygon fill="black" stroke="black" points="1003.99,-74.69 993.94,-78.02 1003.87,-81.69 1003.99,-74.69"/>
</g>
</g>
</svg>
